PathFileType	4	(X/Y/Z)	c:/Users/goper/Files/vsCode/490R/osim_files/A03/A03_SSWS_06.trc
DataRate	CameraRate	NumFrames	NumMarkers	Units                	OrigDataRate	OrigDataStartFrame	OrigNumFrames
250.00	250.00	6	36	mm	250.0	1883	2510
                Frame#	Time	LPSIS			LASIS			LTH1			LTH2			LTH3			LTH4			LLFE			LMFE			LSH1			LSH2			LSH3			LSH4			LLMAL			LMMAL			LCAL			LMTP5			LTOE			LMTP1			RPSIS			RASIS			RTH1			RTH2			RTH3			RTH4			RLFE			RMFE			RSH1			RSH2			RSH3			RSH4			RLMAL			RMMAL			RCAL			RMTP1			RTOE			RMTP5		
		X1	Y1	Z1	X2	Y2	Z2	X3	Y3	Z3	X4	Y4	Z4	X5	Y5	Z5	X6	Y6	Z6	X7	Y7	Z7	X8	Y8	Z8	X9	Y9	Z9	X10	Y10	Z10	X11	Y11	Z11	X12	Y12	Z12	X13	Y13	Z13	X14	Y14	Z14	X15	Y15	Z15	X16	Y16	Z16	X17	Y17	Z17	X18	Y18	Z18	X19	Y19	Z19	X20	Y20	Z20	X21	Y21	Z21	X22	Y22	Z22	X23	Y23	Z23	X24	Y24	Z24	X25	Y25	Z25	X26	Y26	Z26	X27	Y27	Z27	X28	Y28	Z28	X29	Y29	Z29	X30	Y30	Z30	X31	Y31	Z31	X32	Y32	Z32	X33	Y33	Z33	X34	Y34	Z34	X35	Y35	Z35	X36	Y36	Z36

1883	7.52800	-2794.19922	1064.55798	241.23187	-3035.31299	976.85620	354.43228	-3112.99023	643.47968	389.72095	-3138.40381	610.53033	378.47040	-3161.97925	677.32172	363.58206	-3178.84058	638.05957	356.00009	0.00000	0.00000	0.00000	-3161.85107	566.22308	211.81743	-3137.71362	465.69949	364.51160	-3161.30615	423.88104	364.09253	-3195.32397	490.01761	363.14346	-3208.62256	444.68964	360.16318	-3311.83350	134.92639	337.76361	-3322.86206	142.78105	239.00276	-3253.04224	90.05622	285.17615	-3475.66553	154.02954	353.93234	-3485.58447	191.64989	284.04697	-3470.11157	160.02208	238.69463	-2793.37646	1077.89453	158.43044	-3023.68579	969.00726	56.06972	-2884.66357	613.44727	24.95880	-2883.29907	569.38000	33.56809	-2947.04736	606.14642	30.26327	-2938.51221	563.74316	38.74292	-2900.10083	531.58862	50.46658	-2939.33032	531.71985	169.20703	-2832.29761	476.37570	51.99185	-2818.21973	437.43088	40.81784	-2888.81030	453.74203	45.90401	-2867.50269	413.35458	37.06436	-2749.10205	127.93897	89.88187	-2781.17627	115.44337	170.77646	-2690.25171	90.11550	147.50583	-2899.48730	54.33093	191.43463	-2927.42676	77.98011	142.52783	-2899.30859	45.71457	72.23572
1884	7.53200	-2798.52710	1063.76025	241.64915	-3039.66699	975.49597	354.55063	-3117.05688	642.43481	389.25790	-3142.40991	609.47052	377.97092	-3166.09668	676.24481	363.07285	-3182.81787	636.90521	355.48572	-3138.04517	561.03442	364.90295	-3165.39233	565.13550	211.39282	-3142.19263	464.78452	364.45074	-3166.57959	423.25879	363.93906	-3199.85474	489.59827	362.90735	-3213.56982	444.35068	359.98862	-3319.51001	135.56752	338.14313	-3330.18530	143.29779	239.33202	-3260.89062	90.09527	285.85718	-3483.20898	156.20139	353.89197	-3492.54956	193.68359	283.86337	-3477.25073	161.91153	238.58636	-2797.70947	1077.31689	158.80701	-3029.07666	968.55719	55.90220	-2887.39868	612.95923	24.70455	-2885.91162	568.81421	33.37514	-2949.79565	605.32159	30.04625	-2941.08594	562.98706	38.49506	-2902.54248	530.93243	50.23341	-2941.91602	530.84698	168.95441	-2834.47681	476.08557	51.82841	-2820.15283	437.18924	40.65004	-2890.82349	453.11865	45.69542	-2869.29663	412.89819	36.87169	-2749.31958	128.01135	89.76388	0.00000	0.00000	0.00000	-2690.28662	90.22442	147.39420	-2899.45117	54.25488	191.43005	-2927.43628	77.89079	142.51952	-2899.39282	45.70878	72.11681
1885	7.53600	-2802.88037	1063.06873	242.05438	-3044.09253	974.23303	354.64651	-3121.16602	641.42273	388.88052	-3146.50415	608.45032	377.57578	-3170.24023	675.20929	362.61334	-3186.92383	635.83087	355.03549	0.00000	0.00000	0.00000	-3168.93921	564.01514	211.01901	-3146.93408	463.96616	364.39871	-3171.37964	422.53625	364.01389	-3204.36377	489.12643	362.69452	-3218.41992	443.95432	359.82413	-3326.64282	136.02002	338.57220	-3336.80566	143.42647	239.61914	-3268.18286	90.02077	286.55740	0.00000	0.00000	0.00000	-3499.06641	195.32950	283.65512	-3483.93799	163.38716	238.49179	-2802.05151	1076.66858	159.23839	-3033.08276	967.57208	55.99078	-2890.13623	612.34216	24.63906	-2888.46021	568.27661	33.19027	-2952.01562	604.57800	29.95144	-2943.64844	562.22253	38.28744	-2905.00781	530.29791	50.07704	-2944.44946	529.93201	168.70497	-2836.73462	475.78946	51.65403	-2822.13843	437.01981	40.50966	-2892.86719	452.52884	45.47711	-2871.25439	412.45877	36.55789	-2749.53760	128.14195	89.61956	0.00000	0.00000	0.00000	-2690.35938	90.37187	147.25909	-2899.45142	54.21352	191.41510	-2927.83301	77.97211	142.40176	-2899.37134	45.63975	72.04613
1886	7.54000	-2807.23804	1062.31531	242.41521	-3050.66553	973.85205	355.31604	-3125.34375	640.46423	388.55511	-3150.69458	607.47693	377.27969	-3174.44678	674.17462	362.17670	-3191.09399	634.84082	354.68262	-3145.93555	559.23621	364.41440	-3172.63940	562.93701	210.73253	-3151.58862	463.14050	364.40057	-3176.28955	421.89883	364.06781	-3208.86816	488.61270	362.54193	-3223.16406	443.46506	359.74246	-3333.28247	136.24861	338.84747	-3343.29126	143.59477	239.98332	-3275.24927	89.67381	287.09659	0.00000	0.00000	0.00000	-3505.17505	196.50098	283.43661	-3490.18237	164.46986	238.35439	-2806.39673	1076.06909	159.66464	-3035.74731	966.03650	56.33065	-2892.91382	611.83002	24.42752	-2891.08936	567.72870	33.07362	-2954.74707	603.76654	29.76803	-2946.24146	561.42517	38.08589	-2907.44263	529.65387	49.85151	-2947.03198	529.03375	168.47229	-2838.95874	475.50937	51.52049	-2824.00757	436.76846	40.35508	-2894.95752	451.94370	45.27416	-2873.87866	412.32544	35.94506	-2749.74512	128.26233	89.49458	-2781.62573	115.64156	170.38896	-2690.33398	90.65254	146.67293	-2899.44971	54.14315	191.39316	-2927.84253	77.88382	142.38405	-2899.39404	45.58575	72.04256
1887	7.54400	-2811.67651	1061.56396	242.78915	-3053.09692	971.96387	354.88760	-3129.27539	640.37292	387.00311	-3154.97852	606.56769	377.01819	-3178.27808	673.25287	361.95035	-3195.38184	633.87842	354.36914	-3150.08984	558.35992	364.23959	-3175.56445	561.32922	210.40211	-3156.23022	462.30746	364.45126	-3181.08252	421.16696	364.14294	-3213.36084	488.04926	362.46817	-3227.88354	442.95822	359.72583	-3339.44385	136.21571	339.26205	-3349.11206	143.45914	240.26727	-3287.09229	87.07961	286.85629	0.00000	0.00000	0.00000	-3510.80469	197.19626	283.24728	-3494.99048	162.68076	237.28598	-2810.82935	1075.46741	160.04414	-3041.10425	965.52026	56.15311	-2895.71631	611.28558	24.34537	-2893.65063	567.19928	32.93248	-2957.49634	602.91687	29.57804	-2948.83813	560.65228	37.90269	-2909.89087	528.99182	49.68285	-2949.62451	528.13312	168.26102	-2841.22192	475.14514	51.41747	-2825.99219	436.53232	40.23252	-2896.96704	451.31107	45.09105	-2876.58765	412.35675	35.42323	-2749.98022	128.40343	89.41621	-2781.80371	115.66553	170.29506	-2690.39600	90.81226	146.60027	-2899.43701	54.07377	191.43108	-2927.83228	77.77335	142.36998	-2899.38501	45.51392	72.04787
1888	7.54800	-2816.09766	1060.81470	243.13463	-3057.66382	970.95660	355.00598	-3134.10596	638.75562	388.08566	-3159.33984	605.92651	376.70679	-3181.63721	671.80530	361.66806	-3199.75024	632.97632	354.06171	-3154.70630	557.65826	364.08273	-3179.36133	560.24487	210.23593	-3161.13184	461.51550	364.51434	-3185.74829	420.42810	364.29102	-3217.79370	487.38232	362.44113	-3232.44727	442.31534	359.74088	-3344.65723	136.05887	339.48618	-3354.39136	143.03450	240.55267	-3292.75195	86.44743	287.36380	0.00000	0.00000	0.00000	-3516.00220	197.38548	283.04187	-3500.13208	162.69720	237.23116	-2815.20654	1074.77295	160.45055	-3045.14697	964.48816	56.22783	-2898.49341	610.75250	24.27166	-2896.25952	566.62866	32.83574	-2960.26343	602.09192	29.42177	-2951.40625	559.85925	37.75846	-2912.40601	528.36420	49.50118	-2952.28271	527.23145	168.01189	-2843.44507	474.80176	51.31001	-2827.97607	436.32260	40.15889	-2899.01025	450.69647	44.90746	-2878.65601	412.07294	35.21747	-2750.20337	128.55392	89.34768	-2781.99658	115.70850	170.23273	-2690.50562	90.96179	146.47476	-2899.45972	54.00061	191.39243	-2927.38574	77.49853	142.49980	-2899.40112	45.49157	72.04585
